<mxfile host="app.diagrams.net" modified="2024-06-19T22:24:48.868Z" agent="Mozilla/5.0 (Windows NT 10.0; Win64; x64) AppleWebKit/537.36 (KHTML, like Gecko) Chrome/126.0.0.0 Safari/537.36" etag="waxZKhsU3lkGn2p4sNR-" version="24.5.5" type="github">
  <diagram name="Page-1" id="2YBvvXClWsGukQMizWep">
    <mxGraphModel dx="794" dy="446" grid="1" gridSize="10" guides="1" tooltips="1" connect="1" arrows="1" fold="1" page="1" pageScale="1" pageWidth="850" pageHeight="1100" math="0" shadow="0">
      <root>
        <mxCell id="0" />
        <mxCell id="1" parent="0" />
        <mxCell id="nu4zmj4P8LnJA5p7EdKG-1" value="Insere Ator" style="text;html=1;align=center;verticalAlign=middle;resizable=0;points=[];autosize=1;strokeColor=none;fillColor=none;" vertex="1" parent="1">
          <mxGeometry x="255" y="20" width="80" height="30" as="geometry" />
        </mxCell>
        <mxCell id="nu4zmj4P8LnJA5p7EdKG-2" value="Ator" style="shape=umlLifeline;perimeter=lifelinePerimeter;whiteSpace=wrap;html=1;container=1;dropTarget=0;collapsible=0;recursiveResize=0;outlineConnect=0;portConstraint=eastwest;newEdgeStyle={&quot;edgeStyle&quot;:&quot;elbowEdgeStyle&quot;,&quot;elbow&quot;:&quot;vertical&quot;,&quot;curved&quot;:0,&quot;rounded&quot;:0};" vertex="1" parent="1">
          <mxGeometry x="430" y="80" width="100" height="560" as="geometry" />
        </mxCell>
        <mxCell id="nu4zmj4P8LnJA5p7EdKG-3" value="" style="html=1;points=[[0,0,0,0,5],[0,1,0,0,-5],[1,0,0,0,5],[1,1,0,0,-5]];perimeter=orthogonalPerimeter;outlineConnect=0;targetShapes=umlLifeline;portConstraint=eastwest;newEdgeStyle={&quot;curved&quot;:0,&quot;rounded&quot;:0};" vertex="1" parent="nu4zmj4P8LnJA5p7EdKG-2">
          <mxGeometry x="45" y="160" width="10" height="80" as="geometry" />
        </mxCell>
        <mxCell id="nu4zmj4P8LnJA5p7EdKG-4" value="Tela" style="shape=umlLifeline;perimeter=lifelinePerimeter;whiteSpace=wrap;html=1;container=1;dropTarget=0;collapsible=0;recursiveResize=0;outlineConnect=0;portConstraint=eastwest;newEdgeStyle={&quot;edgeStyle&quot;:&quot;elbowEdgeStyle&quot;,&quot;elbow&quot;:&quot;vertical&quot;,&quot;curved&quot;:0,&quot;rounded&quot;:0};" vertex="1" parent="1">
          <mxGeometry x="250" y="80" width="100" height="560" as="geometry" />
        </mxCell>
        <mxCell id="nu4zmj4P8LnJA5p7EdKG-5" value="Insere informações do ator" style="html=1;verticalAlign=bottom;endArrow=block;curved=0;rounded=0;" edge="1" parent="1" source="nu4zmj4P8LnJA5p7EdKG-8">
          <mxGeometry x="-0.1069" width="80" relative="1" as="geometry">
            <mxPoint x="120" y="200" as="sourcePoint" />
            <mxPoint x="300" y="200" as="targetPoint" />
            <mxPoint as="offset" />
          </mxGeometry>
        </mxCell>
        <mxCell id="nu4zmj4P8LnJA5p7EdKG-6" value="Incluir_Ator(info_ator)" style="html=1;verticalAlign=bottom;endArrow=block;curved=0;rounded=0;" edge="1" parent="1" target="nu4zmj4P8LnJA5p7EdKG-2">
          <mxGeometry x="0.0036" width="80" relative="1" as="geometry">
            <mxPoint x="300" y="240" as="sourcePoint" />
            <mxPoint x="439.5" y="240" as="targetPoint" />
            <mxPoint as="offset" />
          </mxGeometry>
        </mxCell>
        <mxCell id="nu4zmj4P8LnJA5p7EdKG-7" value="Clica no botão para inserir" style="html=1;verticalAlign=bottom;endArrow=block;curved=0;rounded=0;" edge="1" parent="1" source="nu4zmj4P8LnJA5p7EdKG-8">
          <mxGeometry width="80" relative="1" as="geometry">
            <mxPoint x="120" y="230" as="sourcePoint" />
            <mxPoint x="300" y="230" as="targetPoint" />
          </mxGeometry>
        </mxCell>
        <mxCell id="nu4zmj4P8LnJA5p7EdKG-8" value="" style="shape=umlLifeline;perimeter=lifelinePerimeter;whiteSpace=wrap;html=1;container=1;dropTarget=0;collapsible=0;recursiveResize=0;outlineConnect=0;portConstraint=eastwest;newEdgeStyle={&quot;curved&quot;:0,&quot;rounded&quot;:0};participant=umlActor;" vertex="1" parent="1">
          <mxGeometry x="80" y="80" width="20" height="560" as="geometry" />
        </mxCell>
        <mxCell id="nu4zmj4P8LnJA5p7EdKG-9" value="Operador" style="text;html=1;align=center;verticalAlign=middle;resizable=0;points=[];autosize=1;strokeColor=none;fillColor=none;" vertex="1" parent="1">
          <mxGeometry x="55" y="50" width="70" height="30" as="geometry" />
        </mxCell>
        <mxCell id="nu4zmj4P8LnJA5p7EdKG-10" value="Cod_Erro" style="html=1;verticalAlign=bottom;endArrow=open;dashed=1;endSize=8;curved=0;rounded=0;" edge="1" parent="1">
          <mxGeometry relative="1" as="geometry">
            <mxPoint x="480" y="320" as="sourcePoint" />
            <mxPoint x="300" y="320" as="targetPoint" />
          </mxGeometry>
        </mxCell>
        <mxCell id="nu4zmj4P8LnJA5p7EdKG-11" value="Se Cod_Erro = 0, ator incluido com sucesso, se não, tratar erro" style="html=1;whiteSpace=wrap;" vertex="1" parent="1">
          <mxGeometry x="120" y="280" width="160" height="80" as="geometry" />
        </mxCell>
        <mxCell id="nu4zmj4P8LnJA5p7EdKG-12" value="Alterar Ator" style="text;html=1;align=center;verticalAlign=middle;resizable=0;points=[];autosize=1;strokeColor=none;fillColor=none;" vertex="1" parent="1">
          <mxGeometry x="790" y="20" width="80" height="30" as="geometry" />
        </mxCell>
        <mxCell id="nu4zmj4P8LnJA5p7EdKG-13" value="Ator" style="shape=umlLifeline;perimeter=lifelinePerimeter;whiteSpace=wrap;html=1;container=1;dropTarget=0;collapsible=0;recursiveResize=0;outlineConnect=0;portConstraint=eastwest;newEdgeStyle={&quot;edgeStyle&quot;:&quot;elbowEdgeStyle&quot;,&quot;elbow&quot;:&quot;vertical&quot;,&quot;curved&quot;:0,&quot;rounded&quot;:0};" vertex="1" parent="1">
          <mxGeometry x="960" y="80" width="100" height="560" as="geometry" />
        </mxCell>
        <mxCell id="nu4zmj4P8LnJA5p7EdKG-14" value="" style="html=1;points=[[0,0,0,0,5],[0,1,0,0,-5],[1,0,0,0,5],[1,1,0,0,-5]];perimeter=orthogonalPerimeter;outlineConnect=0;targetShapes=umlLifeline;portConstraint=eastwest;newEdgeStyle={&quot;curved&quot;:0,&quot;rounded&quot;:0};" vertex="1" parent="nu4zmj4P8LnJA5p7EdKG-13">
          <mxGeometry x="45" y="160" width="10" height="190" as="geometry" />
        </mxCell>
        <mxCell id="nu4zmj4P8LnJA5p7EdKG-15" value="Tela" style="shape=umlLifeline;perimeter=lifelinePerimeter;whiteSpace=wrap;html=1;container=1;dropTarget=0;collapsible=0;recursiveResize=0;outlineConnect=0;portConstraint=eastwest;newEdgeStyle={&quot;edgeStyle&quot;:&quot;elbowEdgeStyle&quot;,&quot;elbow&quot;:&quot;vertical&quot;,&quot;curved&quot;:0,&quot;rounded&quot;:0};" vertex="1" parent="1">
          <mxGeometry x="780" y="80" width="100" height="560" as="geometry" />
        </mxCell>
        <mxCell id="nu4zmj4P8LnJA5p7EdKG-16" value="Busca Informações do ator que&amp;nbsp;&lt;div&gt;deseja alterar&lt;/div&gt;" style="html=1;verticalAlign=bottom;endArrow=block;curved=0;rounded=0;" edge="1" parent="1" source="nu4zmj4P8LnJA5p7EdKG-19">
          <mxGeometry x="-0.1111" width="80" relative="1" as="geometry">
            <mxPoint x="650" y="200" as="sourcePoint" />
            <mxPoint x="830" y="200" as="targetPoint" />
            <mxPoint as="offset" />
          </mxGeometry>
        </mxCell>
        <mxCell id="nu4zmj4P8LnJA5p7EdKG-17" value="Localizar_Ator(ator)" style="html=1;verticalAlign=bottom;endArrow=block;curved=0;rounded=0;" edge="1" parent="1" target="nu4zmj4P8LnJA5p7EdKG-13">
          <mxGeometry x="0.0028" width="80" relative="1" as="geometry">
            <mxPoint x="830" y="240" as="sourcePoint" />
            <mxPoint x="969.5" y="240" as="targetPoint" />
            <mxPoint as="offset" />
          </mxGeometry>
        </mxCell>
        <mxCell id="nu4zmj4P8LnJA5p7EdKG-18" value="Clica no botão para localizar" style="html=1;verticalAlign=bottom;endArrow=block;curved=0;rounded=0;" edge="1" parent="1" source="nu4zmj4P8LnJA5p7EdKG-19">
          <mxGeometry width="80" relative="1" as="geometry">
            <mxPoint x="650" y="230" as="sourcePoint" />
            <mxPoint x="830" y="230" as="targetPoint" />
          </mxGeometry>
        </mxCell>
        <mxCell id="nu4zmj4P8LnJA5p7EdKG-19" value="" style="shape=umlLifeline;perimeter=lifelinePerimeter;whiteSpace=wrap;html=1;container=1;dropTarget=0;collapsible=0;recursiveResize=0;outlineConnect=0;portConstraint=eastwest;newEdgeStyle={&quot;curved&quot;:0,&quot;rounded&quot;:0};participant=umlActor;" vertex="1" parent="1">
          <mxGeometry x="610" y="80" width="20" height="560" as="geometry" />
        </mxCell>
        <mxCell id="nu4zmj4P8LnJA5p7EdKG-20" value="Operador" style="text;html=1;align=center;verticalAlign=middle;resizable=0;points=[];autosize=1;strokeColor=none;fillColor=none;" vertex="1" parent="1">
          <mxGeometry x="585" y="50" width="70" height="30" as="geometry" />
        </mxCell>
        <mxCell id="nu4zmj4P8LnJA5p7EdKG-21" value="Obj_Ator" style="html=1;verticalAlign=bottom;endArrow=open;dashed=1;endSize=8;curved=0;rounded=0;" edge="1" parent="1">
          <mxGeometry relative="1" as="geometry">
            <mxPoint x="1010" y="320" as="sourcePoint" />
            <mxPoint x="830" y="320" as="targetPoint" />
            <mxPoint as="offset" />
          </mxGeometry>
        </mxCell>
        <mxCell id="nu4zmj4P8LnJA5p7EdKG-22" value="Altera informações necessárias do&lt;div&gt;Ator&lt;/div&gt;" style="html=1;verticalAlign=bottom;endArrow=block;curved=0;rounded=0;" edge="1" parent="1" source="nu4zmj4P8LnJA5p7EdKG-19">
          <mxGeometry x="-0.0024" width="80" relative="1" as="geometry">
            <mxPoint x="750" y="340" as="sourcePoint" />
            <mxPoint x="830" y="340" as="targetPoint" />
            <mxPoint as="offset" />
          </mxGeometry>
        </mxCell>
        <mxCell id="nu4zmj4P8LnJA5p7EdKG-23" value="Clica no botão para concluir alteração" style="html=1;verticalAlign=bottom;endArrow=block;curved=0;rounded=0;" edge="1" parent="1">
          <mxGeometry width="80" relative="1" as="geometry">
            <mxPoint x="620" y="370" as="sourcePoint" />
            <mxPoint x="830" y="370" as="targetPoint" />
          </mxGeometry>
        </mxCell>
        <mxCell id="nu4zmj4P8LnJA5p7EdKG-24" value="Alterar_Ator(infos_ator)" style="html=1;verticalAlign=bottom;endArrow=block;curved=0;rounded=0;" edge="1" parent="1">
          <mxGeometry x="0.0036" width="80" relative="1" as="geometry">
            <mxPoint x="830" y="390" as="sourcePoint" />
            <mxPoint x="1010" y="390" as="targetPoint" />
            <mxPoint as="offset" />
          </mxGeometry>
        </mxCell>
        <mxCell id="nu4zmj4P8LnJA5p7EdKG-25" value="Cod_Erro" style="html=1;verticalAlign=bottom;endArrow=open;dashed=1;endSize=8;curved=0;rounded=0;" edge="1" parent="1" target="nu4zmj4P8LnJA5p7EdKG-15">
          <mxGeometry relative="1" as="geometry">
            <mxPoint x="1010" y="430" as="sourcePoint" />
            <mxPoint x="930" y="430" as="targetPoint" />
          </mxGeometry>
        </mxCell>
        <mxCell id="nu4zmj4P8LnJA5p7EdKG-26" value="Se Cod_Erro = 0, ator alterado com sucesso, se não, tratar erro" style="html=1;whiteSpace=wrap;" vertex="1" parent="1">
          <mxGeometry x="660" y="390" width="160" height="80" as="geometry" />
        </mxCell>
      </root>
    </mxGraphModel>
  </diagram>
</mxfile>
